<svg xmlns="http://www.w3.org/2000/svg" xmlns:xlink="http://www.w3.org/1999/xlink" width="500" zoomAndPan="magnify" viewBox="0 0 375 374.999991" height="500" preserveAspectRatio="xMidYMid meet" version="1.0"><defs><g/></defs><rect x="-37.5" width="450" fill="#ffffff" y="-37.499999" height="449.999989" fill-opacity="1"/><rect x="-37.5" width="450" fill="#ff3131" y="-37.499999" height="449.999989" fill-opacity="1"/><g fill="#ffffff" fill-opacity="1"><g transform="translate(21.96505, 227.743791)"><g><path d="M 11.484375 -119.171875 C 14.566406 -122.253906 18.242188 -123.796875 22.515625 -123.796875 C 26.796875 -123.796875 30.476562 -122.253906 33.5625 -119.171875 C 36.644531 -116.085938 38.1875 -112.40625 38.1875 -108.125 C 38.1875 -103.851562 36.644531 -100.175781 33.5625 -97.09375 C 30.476562 -94.019531 26.796875 -92.484375 22.515625 -92.484375 C 18.242188 -92.484375 14.566406 -94.019531 11.484375 -97.09375 C 8.398438 -100.175781 6.859375 -103.851562 6.859375 -108.125 C 6.859375 -112.40625 8.398438 -116.085938 11.484375 -119.171875 Z M 8.953125 -76.515625 L 8.953125 0 L 35.34375 0 L 35.34375 -76.515625 Z M 8.953125 -76.515625 "/></g></g></g><g fill="#ffffff" fill-opacity="1"><g transform="translate(65.517687, 227.743791)"><g><path d="M 54.296875 -125.296875 C 60.953125 -125.296875 67.460938 -124.320312 73.828125 -122.375 C 80.191406 -120.4375 84.914062 -118.523438 88 -116.640625 L 92.484375 -113.65625 L 81.140625 -91.28125 C 80.242188 -91.875 79 -92.644531 77.40625 -93.59375 C 75.820312 -94.539062 72.84375 -95.804688 68.46875 -97.390625 C 64.09375 -98.984375 60.015625 -99.78125 56.234375 -99.78125 C 51.554688 -99.78125 47.945312 -98.785156 45.40625 -96.796875 C 42.875 -94.804688 41.609375 -92.125 41.609375 -88.75 C 41.609375 -87.0625 42.203125 -85.492188 43.390625 -84.046875 C 44.585938 -82.609375 46.628906 -81.066406 49.515625 -79.421875 C 52.398438 -77.785156 54.9375 -76.46875 57.125 -75.46875 C 59.3125 -74.476562 62.691406 -72.988281 67.265625 -71 C 75.222656 -67.613281 82.007812 -63.007812 87.625 -57.1875 C 93.25 -51.375 96.0625 -44.789062 96.0625 -37.4375 C 96.0625 -30.375 94.789062 -24.207031 92.25 -18.9375 C 89.71875 -13.664062 86.238281 -9.539062 81.8125 -6.5625 C 77.382812 -3.582031 72.484375 -1.375 67.109375 0.0625 C 61.742188 1.507812 55.929688 2.234375 49.671875 2.234375 C 44.296875 2.234375 39.023438 1.6875 33.859375 0.59375 C 28.691406 -0.5 24.363281 -1.863281 20.875 -3.5 C 17.394531 -5.144531 14.265625 -6.757812 11.484375 -8.34375 C 8.703125 -9.9375 6.664062 -11.28125 5.375 -12.375 L 3.4375 -14.015625 L 17.453125 -37.59375 C 18.640625 -36.59375 20.273438 -35.320312 22.359375 -33.78125 C 24.453125 -32.238281 28.160156 -30.175781 33.484375 -27.59375 C 38.804688 -25.007812 43.503906 -23.71875 47.578125 -23.71875 C 59.410156 -23.71875 65.328125 -27.742188 65.328125 -35.796875 C 65.328125 -37.484375 64.90625 -39.046875 64.0625 -40.484375 C 63.21875 -41.929688 61.722656 -43.375 59.578125 -44.8125 C 57.441406 -46.257812 55.550781 -47.40625 53.90625 -48.25 C 52.269531 -49.09375 49.585938 -50.382812 45.859375 -52.125 C 42.128906 -53.863281 39.375 -55.179688 37.59375 -56.078125 C 30.132812 -59.765625 24.363281 -64.363281 20.28125 -69.875 C 16.207031 -75.394531 14.171875 -81.335938 14.171875 -87.703125 C 14.171875 -98.742188 18.242188 -107.769531 26.390625 -114.78125 C 34.546875 -121.789062 43.847656 -125.296875 54.296875 -125.296875 Z M 54.296875 -125.296875 "/></g></g></g><g fill="#ffffff" fill-opacity="1"><g transform="translate(164.256938, 227.743791)"><g><path d="M 86.359375 -34.609375 L 30.875 -34.609375 C 30.875 -29.234375 32.613281 -25.253906 36.09375 -22.671875 C 39.570312 -20.085938 43.351562 -18.796875 47.4375 -18.796875 C 51.707031 -18.796875 55.082031 -19.363281 57.5625 -20.5 C 60.050781 -21.644531 62.890625 -23.910156 66.078125 -27.296875 L 85.171875 -17.75 C 77.210938 -4.425781 63.988281 2.234375 45.5 2.234375 C 33.957031 2.234375 24.0625 -1.71875 15.8125 -9.625 C 7.5625 -17.53125 3.4375 -27.050781 3.4375 -38.1875 C 3.4375 -49.320312 7.5625 -58.863281 15.8125 -66.8125 C 24.0625 -74.769531 33.957031 -78.75 45.5 -78.75 C 57.625 -78.75 67.488281 -75.242188 75.09375 -68.234375 C 82.707031 -61.222656 86.515625 -51.207031 86.515625 -38.1875 C 86.515625 -36.394531 86.460938 -35.203125 86.359375 -34.609375 Z M 31.625 -49.21875 L 60.703125 -49.21875 C 60.109375 -53.195312 58.539062 -56.253906 56 -58.390625 C 53.46875 -60.535156 50.210938 -61.609375 46.234375 -61.609375 C 41.859375 -61.609375 38.378906 -60.460938 35.796875 -58.171875 C 33.210938 -55.878906 31.820312 -52.894531 31.625 -49.21875 Z M 31.625 -49.21875 "/></g></g></g><g fill="#ffffff" fill-opacity="1"><g transform="translate(252.704607, 227.743791)"><g><path d="M 86.359375 -34.609375 L 30.875 -34.609375 C 30.875 -29.234375 32.613281 -25.253906 36.09375 -22.671875 C 39.570312 -20.085938 43.351562 -18.796875 47.4375 -18.796875 C 51.707031 -18.796875 55.082031 -19.363281 57.5625 -20.5 C 60.050781 -21.644531 62.890625 -23.910156 66.078125 -27.296875 L 85.171875 -17.75 C 77.210938 -4.425781 63.988281 2.234375 45.5 2.234375 C 33.957031 2.234375 24.0625 -1.71875 15.8125 -9.625 C 7.5625 -17.53125 3.4375 -27.050781 3.4375 -38.1875 C 3.4375 -49.320312 7.5625 -58.863281 15.8125 -66.8125 C 24.0625 -74.769531 33.957031 -78.75 45.5 -78.75 C 57.625 -78.75 67.488281 -75.242188 75.09375 -68.234375 C 82.707031 -61.222656 86.515625 -51.207031 86.515625 -38.1875 C 86.515625 -36.394531 86.460938 -35.203125 86.359375 -34.609375 Z M 31.625 -49.21875 L 60.703125 -49.21875 C 60.109375 -53.195312 58.539062 -56.253906 56 -58.390625 C 53.46875 -60.535156 50.210938 -61.609375 46.234375 -61.609375 C 41.859375 -61.609375 38.378906 -60.460938 35.796875 -58.171875 C 33.210938 -55.878906 31.820312 -52.894531 31.625 -49.21875 Z M 31.625 -49.21875 "/></g></g></g></svg>